G04*
G04 #@! TF.GenerationSoftware,Altium Limited,Altium Designer,22.4.2 (48)*
G04*
G04 Layer_Physical_Order=1*
G04 Layer_Color=255*
%FSLAX25Y25*%
%MOIN*%
G70*
G04*
G04 #@! TF.SameCoordinates,138DA43A-A325-4B2A-8FC9-503C28EEF8EC*
G04*
G04*
G04 #@! TF.FilePolarity,Positive*
G04*
G01*
G75*
%ADD14C,0.00394*%
%ADD15C,0.01000*%
%ADD16R,0.03976X0.03976*%
%ADD17C,0.03976*%
%ADD18C,0.01968*%
D14*
X438319Y283992D02*
G03*
X438319Y258008I0J-12992D01*
G01*
Y286354D02*
G03*
X422965Y271000I0J-15354D01*
G01*
X438319Y284780D02*
G03*
X438319Y257221I0J-13780D01*
G01*
Y285567D02*
G03*
X438319Y256433I0J-14567D01*
G01*
X472200Y267457D02*
G03*
X472200Y274543I0J3543D01*
G01*
Y265882D02*
G03*
X472200Y276118I0J5118D01*
G01*
Y266669D02*
G03*
X472200Y275331I0J4331D01*
G01*
Y268912D02*
G03*
X472200Y273088I0J2088D01*
G01*
Y268244D02*
G03*
X472200Y273756I0J2756D01*
G01*
Y256433D02*
G03*
X472200Y285567I0J14567D01*
G01*
Y257221D02*
G03*
X472200Y284780I0J13780D01*
G01*
Y258008D02*
G03*
X472200Y283992I0J12992D01*
G01*
Y258795D02*
G03*
X472200Y283205I0J12205D01*
G01*
Y255646D02*
G03*
X472200Y286354I0J15354D01*
G01*
Y260370D02*
G03*
X472200Y281630I0J10630D01*
G01*
Y261157D02*
G03*
X472200Y280842I0J9843D01*
G01*
Y261945D02*
G03*
X472200Y280055I0J9055D01*
G01*
Y262732D02*
G03*
X472200Y279268I0J8268D01*
G01*
Y259583D02*
G03*
X472200Y282417I0J11417D01*
G01*
Y265094D02*
G03*
X472200Y276905I0J5906D01*
G01*
Y263520D02*
G03*
X472200Y278480I0J7480D01*
G01*
Y264307D02*
G03*
X472200Y277693I0J6693D01*
G01*
X438319Y275331D02*
G03*
X438319Y266669I0J-4331D01*
G01*
Y276118D02*
G03*
X438319Y265882I0J-5118D01*
G01*
Y276905D02*
G03*
X438319Y265094I0J-5906D01*
G01*
Y273756D02*
G03*
X438319Y268244I0J-2756D01*
G01*
Y273021D02*
G03*
X438319Y268979I0J-2021D01*
G01*
Y274543D02*
G03*
X438319Y267457I0J-3543D01*
G01*
Y282417D02*
G03*
X438319Y259583I0J-11417D01*
G01*
Y281630D02*
G03*
X438319Y260370I0J-10630D01*
G01*
Y283205D02*
G03*
X438319Y258795I0J-12205D01*
G01*
Y280055D02*
G03*
X438319Y261945I0J-9055D01*
G01*
Y279268D02*
G03*
X438319Y262732I0J-8268D01*
G01*
Y280842D02*
G03*
X438319Y261157I0J-9843D01*
G01*
Y277693D02*
G03*
X438319Y264307I0J-6693D01*
G01*
Y278480D02*
G03*
X438319Y263520I0J-7480D01*
G01*
Y281630D02*
X472200D01*
X438319Y286354D02*
X472200D01*
X438319Y283205D02*
X472200D01*
Y273756D02*
Y273766D01*
X438319Y274543D02*
X472200D01*
X458400Y271100D02*
X472200Y268912D01*
X438319Y266669D02*
X472200Y265882D01*
X438319Y265094D02*
X472200Y264307D01*
X438319Y258795D02*
X472200Y258008D01*
X438319Y261157D02*
X472200Y260370D01*
X438319Y280055D02*
X472200D01*
X438319Y279268D02*
X472200D01*
X438319Y278480D02*
X472200D01*
X438319Y277693D02*
X472200D01*
X438319Y282417D02*
X472200D01*
X438319Y283992D02*
X472200D01*
X438319Y285567D02*
X472200D01*
X438319Y284780D02*
X472200D01*
X438319Y280842D02*
X472200D01*
X438319Y267457D02*
X472200Y266669D01*
X438319Y268244D02*
X472200Y267457D01*
X438319Y268979D02*
X472200Y268244D01*
X438319Y265882D02*
X472200Y265094D01*
X438319Y275331D02*
X472200D01*
X438319Y276905D02*
X472200D01*
X438319Y276118D02*
X472200D01*
X438319Y273756D02*
X472200D01*
X438319Y273021D02*
X472200Y273088D01*
X421947Y267700D02*
X422965Y271000D01*
X438319Y264307D02*
X472200Y263520D01*
X438319D02*
X472200Y262732D01*
X438319Y259583D02*
X472200Y258795D01*
X438319Y258008D02*
X472200Y257221D01*
X438319D02*
X472200Y256433D01*
X438319D02*
X472200Y255646D01*
X438319Y262732D02*
X472200Y261945D01*
X438319D02*
X472200Y261157D01*
X438319Y260370D02*
X472200Y259583D01*
D15*
X302700Y262394D02*
G03*
X354511Y267743I25200J9506D01*
G01*
X302700Y262394D02*
Y266500D01*
Y262394D02*
Y262394D01*
X354786Y267700D02*
X421947D01*
D16*
X302700Y266500D02*
D03*
D17*
Y276500D02*
D03*
D18*
X452700Y271000D02*
D03*
X419300Y271100D02*
D03*
X458400D02*
D03*
M02*
